# xmcd
#
# Track frame offsets: 
#        150
#        6544
#        19307
#        33492
#        45734
#        60270
#        70798
#        83218
#        94519
#        113996
#
# Disc length: 1760 seconds
#
# Revision: 0
# Processed by: cddbd v1.5.2PL0 Copyright (c) Steve Scherf et al.
# Submitted via: ExactAudioCopyFreeDBPlugin 1.0
#
DISCID=7b06de0a
DTITLE=Jinder - Kingsize Blackfoot
DYEAR=2017
DGENRE=Blues
TTITLE0=Great Plains
TTITLE1=Up On The Edge
TTITLE2=In The Pines
TTITLE3=White Freightliner Blues
TTITLE4=Brother Can You Spare A Dime?
TTITLE5=Woke Up This Morning
TTITLE6=Cocaine Lil and Morphine Sue
TTITLE7=Bluebird Wine
TTITLE8=Automobile Blues
TTITLE9=Come Home To The Blues (Live)
EXTD=
EXTT0=
EXTT1=
EXTT2=
EXTT3=
EXTT4=
EXTT5=
EXTT6=
EXTT7=
EXTT8=
EXTT9=
PLAYORDER=
